<?xml version="1.0" encoding="utf-8"?>
<!-- Generator: Adobe Illustrator 26.2.0, SVG Export Plug-In . SVG Version: 6.00 Build 0)  -->
<svg version="1.1" id="Ebene_1" xmlns="http://www.w3.org/2000/svg" xmlns:xlink="http://www.w3.org/1999/xlink" x="0px" y="0px"
	 viewBox="0 0 962.7 212.6" style="enable-background:new 0 0 962.7 212.6;" width="963" height="213" xml:space="preserve">
<style type="text/css">
	.st0{fill:#FFFFFF;}
	.st1{fill:#B40019;}
</style>
<g id="logo">
	<g>
		<polygon class="st0" points="102.1,164.1 76.1,119 177.1,119 166.6,94 69.4,94 99.2,48 189.7,48 215.1,4.3 62.1,4.3 0,99.7 
			61.9,207.8 214.8,207.8 196.1,164.1 		"/>
		<polygon class="st0" points="421.1,5 368.6,127.3 316.1,5 243.1,5 192.1,94 240.4,207.8 309.1,207.8 260.8,94 275.1,68.8 
			334.1,207.8 334.1,207.8 334.1,207.8 403.2,207.8 403.1,207.8 403.2,207.8 462.2,68.8 462.4,207.8 530.9,207.8 530.9,5 		"/>
		<path class="st0" d="M730.4,4.8H555.9v203l59.3-28.1V119h77.7L730.4,4.8z M632.6,94h-17.4V48.6h32.1L632.6,94z"/>
	</g>
</g>
<g id="rockhand">
	<path class="st1" d="M962.7,106.3c0,58.7-47.6,106.3-106.3,106.3c-58.7,0-106.3-47.6-106.3-106.3S797.6,0,856.4,0
		C915.1,0,962.7,47.6,962.7,106.3z"/>
	<path d="M892.7,191h-67.3c-1.3,0-2.5-0.6-3.2-1.7l-28-42.3c-0.4-0.6-0.7-1.4-0.7-2.1v-31.8c0-1.3,0.6-2.4,1.6-3.2l13.5-9.6
		c0.2-0.2,0.5-0.3,0.8-0.4V40.4c0-1.2,0.6-2.4,1.6-3.1l24-17.8c1.2-0.9,2.8-1,4.1-0.3s2.1,2,2.1,3.5v55.6l16.8,6.5
		c0.2-0.9,0.8-1.6,1.5-2.1c1.1-0.7,2.4-0.9,3.6-0.4l19.2,7.4V34.9c0-1.5,0.8-2.8,2.1-3.5c1.3-0.7,2.9-0.5,4.1,0.3l24,17.7
		c1,0.7,1.6,1.9,1.6,3.1v92.3c0,0.5-0.1,1-0.3,1.5l-17.5,42.3C895.7,190.1,894.3,191,892.7,191z M827.5,183.2h62.6l16.2-39.2V54.5
		l-16.2-11.9v56c0,1.2-0.6,2.3-1.5,3.1l-2.5,1.9c-1.2,0.9-2.8,1.1-4.1,0.4c-1.3-0.7-2.2-2-2.2-3.5v-3.6l-14.4-5.6
		c-0.2,0.9-0.8,1.6-1.5,2.1c-1.1,0.7-2.4,0.9-3.6,0.4l-16.7-6.5v11.3c0,1.2-0.6,2.4-1.6,3.1l-2.4,1.8c-1.2,0.9-2.7,1-4,0.3
		s-2.1-2-2.1-3.5V30.4l-16.2,12v75.9c0,1.2-0.6,2.4-1.6,3.1l-2.4,1.8c-1.2,0.9-2.8,1-4.1,0.4s-2.1-2-2.1-3.5V111l-5.8,4.1v28.6
		L827.5,183.2z"/>
	<path class="st0" d="M890.1,98.6c0,1.2-0.6,2.3-1.5,3.1l-2.5,1.9c-1.2,0.9-2.8,1.1-4.1,0.4c-1.3-0.7-2.2-2-2.2-3.5v-3.6l-14.4-5.6
		c-0.2,0.9-0.8,1.6-1.5,2.1c-1.1,0.7-2.4,0.9-3.6,0.4l-16.7-6.5v11.3c0,1.2-0.6,2.4-1.6,3.1l-2.4,1.8c-1.2,0.9-2.7,1-4,0.3
		s-2.1-2-2.1-3.5V30.4l-16.2,12l0,75.9c0,1.2-0.6,2.4-1.6,3.1l-2.4,1.8c-1.2,0.9-2.8,1-4.1,0.4s-2.1-2-2.1-3.5V111l-5.8,4.1v28.6
		l26.2,39.6h62.6l16.2-39.2V54.5l-16.2-11.9V98.6z"/>
</g>
<g id="hilfslinien">
</g>
</svg>
