<?xml version="1.0" encoding="utf-8"?>
<!-- Generator: Adobe Illustrator 25.4.1, SVG Export Plug-In . SVG Version: 6.00 Build 0)  -->
<svg version="1.1" id="Ebene_1" xmlns="http://www.w3.org/2000/svg" xmlns:xlink="http://www.w3.org/1999/xlink" x="0px" y="0px"
	 width="701.681px" height="161.896px" viewBox="0 0 488 137" style="enable-background:new 0 0 488 137;" xml:space="preserve">
<style type="text/css">
	.st0{fill:#FFFFFF;}
</style>
<path class="st0" d="M112.6,43.3c0.1,2.2-0.3,4.5-1.1,6.5c-0.9,1.7-2.4,3-4.2,3.6v0.1c2,0.6,3.6,2,4.6,3.9c0.9,2.4,1.3,4.9,1.2,7.4
	c0,4.9-0.9,8.5-2.6,10.7c-1.7,2.2-5,3.4-9.6,3.4H88.8V29.8h12.7c4.1,0,7,1.1,8.6,3.3S112.6,38.7,112.6,43.3z M96.9,36.6v14h3.2
	c1.4,0.2,2.8-0.5,3.5-1.6c0.8-1.7,1.1-3.6,1-5.4c0-2.5-0.3-4.3-1-5.3c-0.7-1-1.8-1.5-3.5-1.5L96.9,36.6z M105.1,64.7
	c0-2.7-0.4-4.7-1.1-5.9c-0.7-1.2-2.1-1.8-4.3-1.8h-2.9v15.1h2.9c2.2,0,3.6-0.5,4.3-1.6S105.2,67.5,105.1,64.7z"/>
<path class="st0" d="M115.5,78.9l8.6-49.1h9.6l8.6,49.1h-7.8L133,68.7h-8.2l-1.4,10.2L115.5,78.9z M128.9,41.4l-3.1,20.3h6.1
	L128.9,41.4z"/>
<path class="st0" d="M169.6,48.1h-7.9v-7.4c0-3-1.3-4.5-3.9-4.5c-2.8,0-4.3,1.6-4.3,4.7v27c0,3.1,1.4,4.7,4.3,4.7
	c2.6,0,3.9-1.5,3.9-4.5v-8h7.9v7.8c0,3.7-1.1,6.6-3.2,8.7c-2.1,2.1-5,3.2-8.7,3.2c-3.3,0.2-6.6-1-9-3.3c-2.3-2.3-3.5-5.5-3.4-8.8
	V41.1c-0.1-3.3,1.1-6.5,3.4-8.8c2.4-2.3,5.7-3.5,9-3.3c3.7,0,6.6,1.1,8.7,3.2c2.2,2.4,3.3,5.5,3.2,8.7V48.1z"/>
<path class="st0" d="M183,29.8v20.8l8.6-20.8h8l-8.5,19.6l9.2,29.5H192l-6.1-21.8l-2.9,6.3v15.4h-8.1V29.8H183z"/>
<path class="st0" d="M210.2,40.6c0,1.3,0.4,2.6,1,3.7c0.6,1.1,1.3,2.2,2.2,3.2c0.8,0.9,2.1,2.2,3.9,3.9c2.5,2.4,4.8,5,6.7,7.9
	c1.5,2.4,2.2,5.2,2.2,8c0.1,3.3-1.1,6.6-3.4,9c-2.3,2.3-5.5,3.5-8.7,3.4c-3.3,0.1-6.5-1.1-8.8-3.5c-2.2-2.5-3.4-5.7-3.3-9v-5.1h7.6
	v4.5c0,4,1.5,6,4.5,6c2.9,0,4.4-1.6,4.4-4.7c0-1-0.2-2.1-0.5-3.1c-0.4-1.1-1-2.2-1.8-3.1c-0.9-1.1-1.6-1.9-2.2-2.5s-1.6-1.5-3-3
	c-1.8-1.7-3.2-3.2-4.1-4.3c-1.2-1.5-2.2-3.1-2.9-4.8c-0.9-2-1.4-4.1-1.4-6.3c-0.1-3.1,1-6.1,3-8.5c2-2.3,4.9-3.4,8.8-3.4
	c3.7,0,6.5,1.1,8.5,3.3c2,2.2,3,5.5,3,10v3.1h-7.6v-2.7c0.1-1.8-0.2-3.6-1-5.2c-0.6-1-1.8-1.6-3-1.6c-1.1-0.1-2.3,0.4-3,1.3
	C210.5,38.2,210.2,39.4,210.2,40.6z"/>
<path class="st0" d="M253.7,37.1h-8.5v41.9h-8.1V37.1h-8.6v-7.3h25.2L253.7,37.1z"/>
<path class="st0" d="M252.7,78.9l8.6-49.1h9.6l8.6,49.1h-7.8l-1.4-10.2h-8.2l-1.4,10.2H252.7z M266.1,41.4L263,61.7h6.1L266.1,41.4z
	"/>
<path class="st0" d="M306.5,40.9V47h-7.9v-6.3c0-3-1.3-4.5-3.9-4.5c-2.7,0-4.1,1.6-4.1,4.7v26.8c0,3.1,1.4,4.7,4.1,4.7
	s4.4-1.7,4.4-5.2v-6.7h-4.8v-6.3h12.6v24.8h-3.7l-1.2-3.5c-1.9,2.8-5,4.4-8.4,4.3c-3.6,0-6.3-1.1-8.2-3.4c-2-2.5-3-5.7-2.9-8.9V41.1
	c-0.2-3.3,1.1-6.5,3.4-8.8c2.4-2.3,5.6-3.4,8.9-3.3c3.2-0.2,6.3,1,8.6,3.2C305.6,34.6,306.7,37.7,306.5,40.9z"/>
<path class="st0" d="M321.8,37v13.1h9.5V57h-9.5v14.7h13.5V79h-21.6V29.8h21V37H321.8z"/>
<path class="st0" d="M374.8,48.1h-7.9v-7.4c0-3-1.3-4.5-3.9-4.5c-2.9,0-4.3,1.6-4.3,4.7v27c0,3.1,1.4,4.7,4.3,4.7
	c2.6,0,3.9-1.5,3.9-4.5v-8h7.9v7.8c0,3.7-1.1,6.6-3.2,8.7c-2.1,2.1-5,3.2-8.7,3.2c-3.3,0.2-6.6-1-9-3.3c-2.3-2.3-3.5-5.5-3.4-8.8
	V41.1c-0.1-3.3,1.1-6.5,3.4-8.8c2.4-2.3,5.7-3.5,9-3.3c3.7,0,6.6,1.1,8.7,3.2c2.2,2.4,3.3,5.5,3.2,8.7V48.1z"/>
<path class="st0" d="M388.2,29.8v41.9h12.3v7.2h-20.4V29.8H388.2z"/>
<path class="st0" d="M428.4,29.8v37.8c0.2,3.3-1.1,6.5-3.3,8.8c-5.2,4.4-12.8,4.4-18,0c-2.3-2.4-3.5-5.5-3.3-8.8V29.8h8.2v38
	c0,3.2,1.4,4.8,4.1,4.8s4.2-1.6,4.2-4.8v-38L428.4,29.8z"/>
<path class="st0" d="M459,43.3c0.1,2.2-0.3,4.5-1.1,6.5c-0.9,1.7-2.4,3-4.1,3.6v0.1c2,0.6,3.6,2,4.6,3.9c0.9,2.4,1.3,4.9,1.2,7.4
	c0,4.9-0.9,8.5-2.6,10.7c-1.7,2.2-5,3.4-9.6,3.4h-12.2V29.8h12.6c4.1,0,7,1.1,8.6,3.3C458.1,35.2,459,38.7,459,43.3z M443.3,36.6v14
	h3.2c1.7,0,2.9-0.5,3.5-1.6s1-2.9,1-5.4s-0.3-4.3-1-5.3s-1.8-1.5-3.5-1.5L443.3,36.6z M451.6,64.7c0-2.7-0.4-4.7-1.1-5.9
	c-0.7-1.2-2.1-1.8-4.3-1.8h-2.9v15.2h2.9c2.2,0,3.6-0.5,4.3-1.6S451.5,67.5,451.6,64.7L451.6,64.7z"/>
<path class="st0" d="M91,105.3c0,0.2,0.1,0.3,0.3,0.3H95c0.1,0,0.3,0.1,0.3,0.2c0,0,0,0,0,0.1v1.5c0,0.3-0.1,0.4-0.3,0.4h-5.8
	c-0.2,0-0.3-0.1-0.3-0.4V90.6c0-0.2,0.1-0.3,0.3-0.3c0,0,0,0,0.1,0h5.9c0.2,0,0.3,0.1,0.3,0.3c0,0,0,0,0,0.1v1.5
	c0,0.2-0.1,0.3-0.3,0.3c0,0-0.1,0-0.1,0h-3.7c-0.2,0-0.3,0.1-0.3,0.3c0,0,0,0.1,0,0.1v4.6c0,0.2,0.1,0.3,0.2,0.3c0,0,0.1,0,0.1,0
	h2.9c0.3,0,0.4,0.1,0.4,0.3v1.4c0,0.3-0.1,0.4-0.4,0.4h-2.9c-0.2,0-0.3,0.1-0.3,0.3c0,0,0,0.1,0,0.1L91,105.3z"/>
<path class="st0" d="M103.3,93.6c0-0.4-0.1-0.7-0.4-1c-0.3-0.3-0.6-0.4-1-0.4c-0.3,0-0.7,0.2-0.9,0.4c-0.3,0.3-0.4,0.7-0.4,1.2
	c0,0.6,0.2,1.2,0.5,1.8c0.3,0.7,0.8,1.3,1.3,1.8c0.5,0.5,1,1.1,1.5,1.7c0.5,0.6,0.9,1.3,1.3,2c0.3,0.7,0.5,1.5,0.5,2.3
	c0,1.1-0.3,2.1-0.9,3c-0.6,0.9-1.7,1.5-2.9,1.4c-1,0-1.9-0.3-2.6-1c-0.7-0.8-1-1.9-0.9-2.9v-0.6c0-0.1,0.1-0.2,0.2-0.3
	c0,0,0,0,0.1,0h1.6c0.2,0,0.2,0.1,0.2,0.3v0.6c0,0.5,0.2,1,0.5,1.4c0.2,0.3,0.6,0.5,1,0.5c0.4,0,0.9-0.2,1.1-0.6
	c0.4-0.5,0.5-1.2,0.5-1.8c0-0.7-0.2-1.3-0.6-1.8c-0.3-0.6-0.8-1.2-1.3-1.7c-0.5-0.6-1-1.1-1.5-1.7c-0.5-0.6-1-1.2-1.3-1.9
	c-0.3-0.7-0.5-1.5-0.5-2.3c0-1,0.3-1.9,1-2.7c0.6-0.7,1.6-1.1,2.5-1.1c0.9,0,1.9,0.3,2.5,1c0.7,0.6,1.1,1.5,1,2.5
	c0,0.2-0.1,0.2-0.2,0.2h-1.6C103.5,93.9,103.3,93.8,103.3,93.6z"/>
<path class="st0" d="M116,90.2c0.2,0,0.3,0.1,0.3,0.3v1.7c0,0.2-0.1,0.2-0.3,0.2h-2.1c-0.2,0-0.3,0.1-0.3,0.2v14.8
	c0,0.2-0.1,0.2-0.3,0.2h-1.6c-0.2,0-0.2-0.1-0.2-0.2V92.7c0-0.1-0.1-0.2-0.2-0.2c0,0,0,0,0,0H109c-0.1,0-0.2-0.1-0.2-0.2
	c0,0,0,0,0-0.1v-1.7c0-0.2,0.1-0.3,0.2-0.3H116z"/>
<path class="st0" d="M119.9,102.1V90.5c0-0.2,0.2-0.2,0.4-0.2h3.8c0.6,0,1.2,0.2,1.8,0.5c0.4,0.3,0.7,0.7,0.8,1.2v8.7
	c0,0.5-0.3,1-0.8,1.2c-0.5,0.3-1.2,0.5-1.8,0.5h-3.8C120.1,102.4,119.9,102.3,119.9,102.1z M122.2,100.6c0,0.2,0.1,0.2,0.4,0.2h1
	c0.3,0,0.6,0,0.8-0.2c0.2-0.1,0.3-0.3,0.3-0.4v-7.7c0-0.2-0.1-0.4-0.3-0.6c-0.2-0.2-0.5-0.2-0.8-0.2h-1.1c-0.2,0-0.3,0-0.3,0.2
	L122.2,100.6z"/>
<rect x="119.9" y="103.7" class="st0" width="6.8" height="1.7"/>
<path class="st0" d="M138.8,93.6c0,0.2-0.1,0.2-0.2,0.2h-1.6c-0.1,0-0.2-0.1-0.2-0.2c0,0,0,0,0-0.1c0-0.9,0.3-1.8,0.9-2.5
	c0.6-0.7,1.5-1,2.4-1c0.9,0,1.8,0.4,2.4,1.1c0.7,0.7,1,1.6,1,2.6c0,1.2-0.3,2.3-0.8,3.4c-0.5,1.2-1.1,2.7-1.9,4.2
	c-0.6,1.2-1.2,2.4-1.6,3.6c-0.2,0.4-0.1,0.6,0.2,0.6h3.8c0.2,0,0.4,0.1,0.4,0.3v1.4c0,0.2-0.1,0.3-0.3,0.3h-6.3
	c-0.2,0-0.3-0.1-0.4-0.3c0,0,0,0,0-0.1c0.1-1.2,0.3-2.4,0.7-3.6c0.4-1.3,1-2.5,1.6-3.7c0.6-1.1,1.2-2.2,1.6-3.4
	c0.4-0.9,0.7-1.9,0.8-2.9c0-0.4-0.1-0.8-0.3-1.1c-0.2-0.2-0.5-0.4-0.9-0.4c-0.3,0-0.6,0.2-0.9,0.4C138.9,93,138.7,93.3,138.8,93.6z"
	/>
<path class="st0" d="M148.5,90.9c1.3-1.1,3.3-1.1,4.6,0c0.7,0.6,1.1,1.6,0.9,2.5v11.1c0.1,1-0.2,1.9-0.9,2.6c-1.3,1.1-3.3,1.1-4.6,0
	c-0.7-0.7-1.1-1.6-0.9-2.6V93.5C147.4,92.5,147.8,91.6,148.5,90.9z M150.8,92.4c-0.7,0-1.1,0.4-1.1,1.2s0.7,2.5,2.2,4.8v-4.8
	C151.9,92.7,151.5,92.4,150.8,92.4L150.8,92.4z M151.9,104.5v-0.6c0-0.9-0.7-2.6-2.2-5.1v5.7c0,0.8,0.4,1.2,1.1,1.2
	S151.9,105.3,151.9,104.5L151.9,104.5z"/>
<path class="st0" d="M161.6,90.6v16.9c0,0.1-0.1,0.2-0.2,0.2c0,0,0,0-0.1,0h-1.6c-0.2,0-0.3-0.1-0.3-0.2V92.7c0-0.1-0.1-0.2-0.2-0.3
	c0,0,0,0,0,0h-0.9c-0.2,0-0.3-0.1-0.3-0.2v-1.7c0-0.2,0.1-0.2,0.3-0.2h3C161.4,90.3,161.6,90.4,161.6,90.6
	C161.6,90.6,161.6,90.6,161.6,90.6z"/>
<path class="st0" d="M165.6,104.6v-1.8c0-0.2,0.1-0.3,0.3-0.3h1.5c0.2,0,0.3,0.1,0.3,0.3v1.8c0,0.8,0.4,1.2,1.1,1.2
	c0.5,0.1,1.1-0.3,1.1-0.8c0-0.1,0-0.3,0-0.4v-4.2c0.1-0.5-0.3-1.1-0.8-1.2c-0.1,0-0.2,0-0.3,0H168c-0.2,0-0.3-0.1-0.3-0.3v-1.7
	c0-0.2,0.1-0.3,0.3-0.3h0.9c0.5,0.1,1.1-0.3,1.1-0.9c0-0.1,0-0.2,0-0.3v-2.1c0.1-0.5-0.3-1.1-0.8-1.2c-0.1,0-0.2,0-0.3,0
	c-0.8,0-1.1,0.3-1.1,1.1c0,0.2-0.1,0.3-0.3,0.3h-1.5c-0.2,0-0.3-0.1-0.3-0.3c-0.1-1,0.3-1.9,1-2.5c0.6-0.6,1.5-0.9,2.4-0.8
	c0.8,0,1.7,0.3,2.3,0.8c0.7,0.7,1,1.6,0.9,2.5v2.2c0.1,0.8-0.2,1.6-0.7,2.3c0.5,0.7,0.7,1.5,0.7,2.3v4.3c0.1,0.9-0.2,1.9-0.9,2.5
	c-0.6,0.6-1.4,0.9-2.3,0.8c-0.9,0.1-1.9-0.3-2.4-1.1C165.9,106.3,165.6,105.5,165.6,104.6z"/>
<path class="st0" d="M52.3,30.4c-13.2,0-23.8,10.7-23.8,23.9s10.7,23.8,23.9,23.8c13.1,0,23.8-10.7,23.8-23.8
	C76.2,41.1,65.5,30.4,52.3,30.4C52.4,30.4,52.4,30.4,52.3,30.4z M63.9,62.2l-3.9,9.3H45.3l-6.2-9.3v-7l2.2-1.6v3.7l1.4-0.9V39.1
	l5.2-3.9v17.1l1.4-1v-2.8l4,1.6v-1l4.1,1.6v1.6l1.3-0.9V38.1l5.3,3.8L63.9,62.2z"/>
</svg>
